<svg xmlns="http://www.w3.org/2000/svg" xmlns:xlink="http://www.w3.org/1999/xlink" xmlns:lucid="lucid" width="414" height="319"><g transform="translate(-618 -174)" lucid:page-tab-id="0_0"><path d="M640 208c0-4.42 3.58-8 8-8h344c4.42 0 8 3.58 8 8v248c0 4.42-3.58 8-8 8H648c-4.42 0-8-3.58-8-8z" stroke="#333" fill="#fff"/><path d="M640 237.6h360M640 404.7h360" stroke="#333" fill="none"/><use xlink:href="#a" transform="matrix(1,0,0,1,648,208) translate(144.05 14.6)"/><use xlink:href="#b" transform="matrix(1,0,0,1,652,245.6) translate(0 14.4)"/><use xlink:href="#c" transform="matrix(1,0,0,1,652,245.6) translate(15.5 14.4)"/><use xlink:href="#d" transform="matrix(1,0,0,1,652,245.6) translate(96.4 14.4)"/><use xlink:href="#e" transform="matrix(1,0,0,1,652,245.6) translate(106.4 14.4)"/><use xlink:href="#b" transform="matrix(1,0,0,1,652,245.6) translate(0 36)"/><use xlink:href="#f" transform="matrix(1,0,0,1,652,245.6) translate(15.5 36)"/><use xlink:href="#d" transform="matrix(1,0,0,1,652,245.6) translate(82.4 36)"/><use xlink:href="#e" transform="matrix(1,0,0,1,652,245.6) translate(92.4 36)"/><use xlink:href="#b" transform="matrix(1,0,0,1,652,245.6) translate(0 57.6)"/><use xlink:href="#g" transform="matrix(1,0,0,1,652,245.6) translate(15.5 57.6)"/><use xlink:href="#d" transform="matrix(1,0,0,1,652,245.6) translate(65.45 57.6)"/><use xlink:href="#e" transform="matrix(1,0,0,1,652,245.6) translate(75.45 57.6)"/><use xlink:href="#b" transform="matrix(1,0,0,1,652,245.6) translate(0 79.20000000000002)"/><use xlink:href="#h" transform="matrix(1,0,0,1,652,245.6) translate(15.5 79.20000000000002)"/><use xlink:href="#e" transform="matrix(1,0,0,1,652,245.6) translate(123.35000000000001 79.20000000000002)"/><use xlink:href="#b" transform="matrix(1,0,0,1,652,245.6) translate(0 100.80000000000001)"/><use xlink:href="#i" transform="matrix(1,0,0,1,652,245.6) translate(15.5 100.80000000000001)"/><use xlink:href="#d" transform="matrix(1,0,0,1,652,245.6) translate(74.4 100.80000000000001)"/><use xlink:href="#e" transform="matrix(1,0,0,1,652,245.6) translate(84.4 100.80000000000001)"/><use xlink:href="#b" transform="matrix(1,0,0,1,652,245.6) translate(0 122.4)"/><use xlink:href="#j" transform="matrix(1,0,0,1,652,245.6) translate(15.5 122.4)"/><use xlink:href="#d" transform="matrix(1,0,0,1,652,245.6) translate(78.4 122.4)"/><use xlink:href="#k" transform="matrix(1,0,0,1,652,245.6) translate(88.4 122.4)"/><defs><path fill="#333" d="M30-248c87 1 191-15 191 75 0 78-77 80-158 76V0H30v-248zm33 125c57 0 124 11 124-50 0-59-68-47-124-48v98" id="l"/><path fill="#333" d="M114-163C36-179 61-72 57 0H25l-1-190h30c1 12-1 29 2 39 6-27 23-49 58-41v29" id="m"/><path fill="#333" d="M100-194c62-1 85 37 85 99 1 63-27 99-86 99S16-35 15-95c0-66 28-99 85-99zM99-20c44 1 53-31 53-75 0-43-8-75-51-75s-53 32-53 75 10 74 51 75" id="n"/><path fill="#333" d="M24-231v-30h32v30H24zM-9 49c24 4 33-6 33-30v-209h32V24c2 40-23 58-65 49V49" id="o"/><path fill="#333" d="M100-194c63 0 86 42 84 106H49c0 40 14 67 53 68 26 1 43-12 49-29l28 8c-11 28-37 45-77 45C44 4 14-33 15-96c1-61 26-98 85-98zm52 81c6-60-76-77-97-28-3 7-6 17-6 28h103" id="p"/><path fill="#333" d="M96-169c-40 0-48 33-48 73s9 75 48 75c24 0 41-14 43-38l32 2c-6 37-31 61-74 61-59 0-76-41-82-99-10-93 101-131 147-64 4 7 5 14 7 22l-32 3c-4-21-16-35-41-35" id="q"/><path fill="#333" d="M59-47c-2 24 18 29 38 22v24C64 9 27 4 27-40v-127H5v-23h24l9-43h21v43h35v23H59v120" id="r"/><g id="a"><use transform="matrix(0.05,0,0,0.05,0,0)" xlink:href="#l"/><use transform="matrix(0.05,0,0,0.05,12,0)" xlink:href="#m"/><use transform="matrix(0.05,0,0,0.05,17.95,0)" xlink:href="#n"/><use transform="matrix(0.05,0,0,0.05,27.950000000000003,0)" xlink:href="#o"/><use transform="matrix(0.05,0,0,0.05,31.899999999999995,0)" xlink:href="#p"/><use transform="matrix(0.05,0,0,0.05,41.9,0)" xlink:href="#q"/><use transform="matrix(0.05,0,0,0.05,50.9,0)" xlink:href="#r"/></g><path fill="#333" d="M118-107v75H92v-75H18v-26h74v-75h26v75h74v26h-74" id="s"/><use transform="matrix(0.05,0,0,0.05,0,0)" xlink:href="#s" id="b"/><path fill="#333" d="M101-234c-31-9-42 10-38 44h38v23H63V0H32v-167H5v-23h27c-7-52 17-82 69-68v24" id="t"/><path fill="#333" d="M117-194c89-4 53 116 60 194h-32v-121c0-31-8-49-39-48C34-167 62-67 57 0H25l-1-190h30c1 10-1 24 2 32 11-22 29-35 61-36" id="u"/><g id="c"><use transform="matrix(0.05,0,0,0.05,0,0)" xlink:href="#m"/><use transform="matrix(0.05,0,0,0.05,5.95,0)" xlink:href="#p"/><use transform="matrix(0.05,0,0,0.05,15.949999999999998,0)" xlink:href="#t"/><use transform="matrix(0.05,0,0,0.05,20.95,0)" xlink:href="#p"/><use transform="matrix(0.05,0,0,0.05,30.950000000000003,0)" xlink:href="#m"/><use transform="matrix(0.05,0,0,0.05,36.9,0)" xlink:href="#p"/><use transform="matrix(0.05,0,0,0.05,46.9,0)" xlink:href="#u"/><use transform="matrix(0.05,0,0,0.05,56.900000000000006,0)" xlink:href="#q"/><use transform="matrix(0.05,0,0,0.05,65.9,0)" xlink:href="#p"/></g><path fill="#333" d="M33-154v-36h34v36H33zM33 0v-36h34V0H33" id="v"/><use transform="matrix(0.05,0,0,0.05,0,0)" xlink:href="#v" id="d"/><path fill="#333" d="M185-189c-5-48-123-54-124 2 14 75 158 14 163 119 3 78-121 87-175 55-17-10-28-26-33-46l33-7c5 56 141 63 141-1 0-78-155-14-162-118-5-82 145-84 179-34 5 7 8 16 11 25" id="w"/><path fill="#333" d="M24-231v-30h32v30H24zM24 0v-190h32V0H24" id="x"/><path fill="#333" d="M177-190C167-65 218 103 67 71c-23-6-38-20-44-43l32-5c15 47 100 32 89-28v-30C133-14 115 1 83 1 29 1 15-40 15-95c0-56 16-97 71-98 29-1 48 16 59 35 1-10 0-23 2-32h30zM94-22c36 0 50-32 50-73 0-42-14-75-50-75-39 0-46 34-46 75s6 73 46 73" id="y"/><g id="e"><use transform="matrix(0.05,0,0,0.05,0,0)" xlink:href="#w"/><use transform="matrix(0.05,0,0,0.05,12,0)" xlink:href="#r"/><use transform="matrix(0.05,0,0,0.05,17,0)" xlink:href="#m"/><use transform="matrix(0.05,0,0,0.05,22.95,0)" xlink:href="#x"/><use transform="matrix(0.05,0,0,0.05,26.899999999999995,0)" xlink:href="#u"/><use transform="matrix(0.05,0,0,0.05,36.9,0)" xlink:href="#y"/></g><path fill="#333" d="M24 0v-261h32V0H24" id="z"/><path fill="#333" d="M141-36C126-15 110 5 73 4 37 3 15-17 15-53c-1-64 63-63 125-63 3-35-9-54-41-54-24 1-41 7-42 31l-33-3c5-37 33-52 76-52 45 0 72 20 72 64v82c-1 20 7 32 28 27v20c-31 9-61-2-59-35zM48-53c0 20 12 33 32 33 41-3 63-29 60-74-43 2-92-5-92 41" id="A"/><g id="f"><use transform="matrix(0.05,0,0,0.05,0,0)" xlink:href="#z"/><use transform="matrix(0.05,0,0,0.05,3.95,0)" xlink:href="#n"/><use transform="matrix(0.05,0,0,0.05,13.949999999999998,0)" xlink:href="#q"/><use transform="matrix(0.05,0,0,0.05,22.95,0)" xlink:href="#A"/><use transform="matrix(0.05,0,0,0.05,32.95,0)" xlink:href="#r"/><use transform="matrix(0.05,0,0,0.05,37.95,0)" xlink:href="#x"/><use transform="matrix(0.05,0,0,0.05,41.900000000000006,0)" xlink:href="#n"/><use transform="matrix(0.05,0,0,0.05,51.900000000000006,0)" xlink:href="#u"/></g><path fill="#333" d="M210-169c-67 3-38 105-44 169h-31v-121c0-29-5-50-35-48C34-165 62-65 56 0H25l-1-190h30c1 10-1 24 2 32 10-44 99-50 107 0 11-21 27-35 58-36 85-2 47 119 55 194h-31v-121c0-29-5-49-35-48" id="B"/><g id="g"><use transform="matrix(0.05,0,0,0.05,0,0)" xlink:href="#u"/><use transform="matrix(0.05,0,0,0.05,10,0)" xlink:href="#A"/><use transform="matrix(0.05,0,0,0.05,20,0)" xlink:href="#B"/><use transform="matrix(0.05,0,0,0.05,34.95,0)" xlink:href="#p"/></g><path fill="#333" d="M135-143c-3-34-86-38-87 0 15 53 115 12 119 90S17 21 10-45l28-5c4 36 97 45 98 0-10-56-113-15-118-90-4-57 82-63 122-42 12 7 21 19 24 35" id="C"/><g id="h"><use transform="matrix(0.05,0,0,0.05,0,0)" xlink:href="#n"/><use transform="matrix(0.05,0,0,0.05,10,0)" xlink:href="#m"/><use transform="matrix(0.05,0,0,0.05,15.949999999999998,0)" xlink:href="#y"/><use transform="matrix(0.05,0,0,0.05,25.950000000000003,0)" xlink:href="#A"/><use transform="matrix(0.05,0,0,0.05,35.95,0)" xlink:href="#u"/><use transform="matrix(0.05,0,0,0.05,45.95,0)" xlink:href="#x"/><use transform="matrix(0.05,0,0,0.05,49.900000000000006,0)" xlink:href="#C"/><use transform="matrix(0.05,0,0,0.05,58.900000000000006,0)" xlink:href="#A"/><use transform="matrix(0.05,0,0,0.05,68.9,0)" xlink:href="#r"/><use transform="matrix(0.05,0,0,0.05,73.9,0)" xlink:href="#x"/><use transform="matrix(0.05,0,0,0.05,77.85000000000001,0)" xlink:href="#n"/><use transform="matrix(0.05,0,0,0.05,87.85000000000001,0)" xlink:href="#u"/><use transform="matrix(0.05,0,0,0.05,97.85000000000001,0)" xlink:href="#v"/></g><g id="i"><use transform="matrix(0.05,0,0,0.05,0,0)" xlink:href="#A"/><use transform="matrix(0.05,0,0,0.05,10,0)" xlink:href="#m"/><use transform="matrix(0.05,0,0,0.05,15.949999999999998,0)" xlink:href="#r"/><use transform="matrix(0.05,0,0,0.05,20.95,0)" xlink:href="#x"/><use transform="matrix(0.05,0,0,0.05,24.9,0)" xlink:href="#t"/><use transform="matrix(0.05,0,0,0.05,29.899999999999995,0)" xlink:href="#A"/><use transform="matrix(0.05,0,0,0.05,39.9,0)" xlink:href="#q"/><use transform="matrix(0.05,0,0,0.05,48.9,0)" xlink:href="#r"/></g><path fill="#333" d="M108 0H70L1-190h34L89-25l56-165h34" id="D"/><g id="j"><use transform="matrix(0.05,0,0,0.05,0,0)" xlink:href="#D"/><use transform="matrix(0.05,0,0,0.05,9,0)" xlink:href="#p"/><use transform="matrix(0.05,0,0,0.05,19,0)" xlink:href="#m"/><use transform="matrix(0.05,0,0,0.05,24.95,0)" xlink:href="#C"/><use transform="matrix(0.05,0,0,0.05,33.95,0)" xlink:href="#x"/><use transform="matrix(0.05,0,0,0.05,37.900000000000006,0)" xlink:href="#n"/><use transform="matrix(0.05,0,0,0.05,47.900000000000006,0)" xlink:href="#u"/></g><g id="k"><use transform="matrix(0.05,0,0,0.05,0,0)" xlink:href="#w"/><use transform="matrix(0.05,0,0,0.05,12,0)" xlink:href="#r"/><use transform="matrix(0.05,0,0,0.05,17,0)" xlink:href="#m"/><use transform="matrix(0.05,0,0,0.05,22.95,0)" xlink:href="#x"/><use transform="matrix(0.05,0,0,0.05,26.899999999999995,0)" xlink:href="#u"/><use transform="matrix(0.05,0,0,0.05,36.9,0)" xlink:href="#y"/></g></defs></g></svg>