<svg xmlns="http://www.w3.org/2000/svg" xmlns:xlink="http://www.w3.org/1999/xlink" xmlns:lucid="lucid" width="999" height="267"><g transform="translate(-405 -152)" lucid:page-tab-id="HWEp-vi-RSFO"><path d="M453.15 208c0-4.42 3.58-8 8-8h344c4.4 0 8 3.58 8 8v161c0 4.42-3.6 8-8 8h-344c-4.42 0-8-3.58-8-8z" stroke="#333" stroke-width="2" fill="#fff"/><path d="M453.15 237.6h360m-360 80.7h360" stroke="#333" stroke-width="2" fill="none"/><use xlink:href="#a" transform="matrix(1,0,0,1,461.1465527853429,208) translate(122.07499999999999 14.6)"/><use xlink:href="#b" transform="matrix(1,0,0,1,465.1465527853429,245.6) translate(0 14.4)"/><use xlink:href="#c" transform="matrix(1,0,0,1,465.1465527853429,245.6) translate(15.5 14.4)"/><use xlink:href="#d" transform="matrix(1,0,0,1,465.1465527853429,245.6) translate(65.45 14.4)"/><use xlink:href="#e" transform="matrix(1,0,0,1,465.1465527853429,245.6) translate(75.45 14.4)"/><use xlink:href="#f" transform="matrix(1,0,0,1,465.1465527853429,245.6) translate(127.35 14.4)"/><use xlink:href="#g" transform="matrix(1,0,0,1,465.1465527853429,245.6) translate(153.35 14.4)"/><use xlink:href="#b" transform="matrix(1,0,0,1,465.1465527853429,245.6) translate(0 36)"/><use xlink:href="#h" transform="matrix(1,0,0,1,465.1465527853429,245.6) translate(15.5 36)"/><use xlink:href="#d" transform="matrix(1,0,0,1,465.1465527853429,245.6) translate(99.4 36)"/><use xlink:href="#i" transform="matrix(1,0,0,1,465.1465527853429,245.6) translate(109.4 36)"/><path d="M993.15 208c0-4.42 3.58-8 8-8h344c4.4 0 8 3.58 8 8v140c0 4.42-3.6 8-8 8h-344c-4.42 0-8-3.58-8-8z" stroke="#333" stroke-width="2" fill="#fff"/><path d="M993.15 237.6h360m-360 59.1h360" stroke="#333" stroke-width="2" fill="none"/><g><use xlink:href="#j" transform="matrix(1,0,0,1,1001.1465527853429,208) translate(79.125 14.6)"/></g><g><use xlink:href="#b" transform="matrix(1,0,0,1,1005.1465527853429,245.6) translate(0 14.4)"/><use xlink:href="#k" transform="matrix(1,0,0,1,1005.1465527853429,245.6) translate(15.5 14.4)"/><use xlink:href="#d" transform="matrix(1,0,0,1,1005.1465527853429,245.6) translate(82.4 14.4)"/><use xlink:href="#l" transform="matrix(1,0,0,1,1005.1465527853429,245.6) translate(92.4 14.4)"/></g><path d="M814.65 288.5h177" stroke="#333" fill="none"/><path d="M814.66 289h-.5v-1h.5zM992.15 289h-.52v-1h.52z" fill="#333"/><g><use xlink:href="#m" transform="matrix(1,0,0,1,814.1465527853429,292.5) translate(0 14.4)"/></g><g><use xlink:href="#m" transform="matrix(1,0,0,1,962.1465527853429,262.9) translate(0 14.4)"/></g><defs><path fill="#333" d="M194 0L95-120 63-95V0H30v-248h33v124l119-124h40L117-140 236 0h-42" id="n"/><path fill="#333" d="M101-251c82-7 93 87 43 132L82-64C71-53 59-42 53-27h129V0H18c2-99 128-94 128-182 0-28-16-43-45-43s-46 15-49 41l-32-3c6-41 34-60 81-64" id="o"/><path fill="#333" d="M205 0l-28-72H64L36 0H1l101-248h38L239 0h-34zm-38-99l-47-123c-12 45-31 82-46 123h93" id="p"/><path fill="#333" d="M115-194c55 1 70 41 70 98S169 2 115 4C84 4 66-9 55-30l1 105H24l-1-265h31l2 30c10-21 28-34 59-34zm-8 174c40 0 45-34 45-75s-6-73-45-74c-42 0-51 32-51 76 0 43 10 73 51 73" id="q"/><path fill="#333" d="M24-231v-30h32v30H24zM24 0v-190h32V0H24" id="r"/><path fill="#333" d="M212-179c-10-28-35-45-73-45-59 0-87 40-87 99 0 60 29 101 89 101 43 0 62-24 78-52l27 14C228-24 195 4 139 4 59 4 22-46 18-125c-6-104 99-153 187-111 19 9 31 26 39 46" id="s"/><path fill="#333" d="M100-194c62-1 85 37 85 99 1 63-27 99-86 99S16-35 15-95c0-66 28-99 85-99zM99-20c44 1 53-31 53-75 0-43-8-75-51-75s-53 32-53 75 10 74 51 75" id="t"/><path fill="#333" d="M117-194c89-4 53 116 60 194h-32v-121c0-31-8-49-39-48C34-167 62-67 57 0H25l-1-190h30c1 10-1 24 2 32 11-22 29-35 61-36" id="u"/><path fill="#333" d="M101-234c-31-9-42 10-38 44h38v23H63V0H32v-167H5v-23h27c-7-52 17-82 69-68v24" id="v"/><path fill="#333" d="M177-190C167-65 218 103 67 71c-23-6-38-20-44-43l32-5c15 47 100 32 89-28v-30C133-14 115 1 83 1 29 1 15-40 15-95c0-56 16-97 71-98 29-1 48 16 59 35 1-10 0-23 2-32h30zM94-22c36 0 50-32 50-73 0-42-14-75-50-75-39 0-46 34-46 75s6 73 46 73" id="w"/><g id="a"><use transform="matrix(0.05,0,0,0.05,0,0)" xlink:href="#n"/><use transform="matrix(0.05,0,0,0.05,12,0)" xlink:href="#o"/><use transform="matrix(0.05,0,0,0.05,22,0)" xlink:href="#p"/><use transform="matrix(0.05,0,0,0.05,34,0)" xlink:href="#q"/><use transform="matrix(0.05,0,0,0.05,44,0)" xlink:href="#r"/><use transform="matrix(0.05,0,0,0.05,47.95,0)" xlink:href="#s"/><use transform="matrix(0.05,0,0,0.05,60.900000000000006,0)" xlink:href="#t"/><use transform="matrix(0.05,0,0,0.05,70.9,0)" xlink:href="#u"/><use transform="matrix(0.05,0,0,0.05,80.9,0)" xlink:href="#v"/><use transform="matrix(0.05,0,0,0.05,85.9,0)" xlink:href="#r"/><use transform="matrix(0.05,0,0,0.05,89.85000000000001,0)" xlink:href="#w"/></g><path fill="#333" d="M118-107v75H92v-75H18v-26h74v-75h26v75h74v26h-74" id="x"/><use transform="matrix(0.05,0,0,0.05,0,0)" xlink:href="#x" id="b"/><path fill="#333" d="M106-169C34-169 62-67 57 0H25v-261h32l-1 103c12-21 28-36 61-36 89 0 53 116 60 194h-32v-121c2-32-8-49-39-48" id="y"/><path fill="#333" d="M210-169c-67 3-38 105-44 169h-31v-121c0-29-5-50-35-48C34-165 62-65 56 0H25l-1-190h30c1 10-1 24 2 32 10-44 99-50 107 0 11-21 27-35 58-36 85-2 47 119 55 194h-31v-121c0-29-5-49-35-48" id="z"/><path fill="#333" d="M100-194c63 0 86 42 84 106H49c0 40 14 67 53 68 26 1 43-12 49-29l28 8c-11 28-37 45-77 45C44 4 14-33 15-96c1-61 26-98 85-98zm52 81c6-60-76-77-97-28-3 7-6 17-6 28h103" id="A"/><g id="c"><use transform="matrix(0.05,0,0,0.05,0,0)" xlink:href="#y"/><use transform="matrix(0.05,0,0,0.05,10,0)" xlink:href="#t"/><use transform="matrix(0.05,0,0,0.05,20,0)" xlink:href="#z"/><use transform="matrix(0.05,0,0,0.05,34.95,0)" xlink:href="#A"/></g><path fill="#333" d="M33-154v-36h34v36H33zM33 0v-36h34V0H33" id="B"/><use transform="matrix(0.05,0,0,0.05,0,0)" xlink:href="#B" id="d"/><path fill="#333" d="M185-189c-5-48-123-54-124 2 14 75 158 14 163 119 3 78-121 87-175 55-17-10-28-26-33-46l33-7c5 56 141 63 141-1 0-78-155-14-162-118-5-82 145-84 179-34 5 7 8 16 11 25" id="C"/><path fill="#333" d="M59-47c-2 24 18 29 38 22v24C64 9 27 4 27-40v-127H5v-23h24l9-43h21v43h35v23H59v120" id="D"/><path fill="#333" d="M114-163C36-179 61-72 57 0H25l-1-190h30c1 12-1 29 2 39 6-27 23-49 58-41v29" id="E"/><g id="e"><use transform="matrix(0.05,0,0,0.05,0,0)" xlink:href="#C"/><use transform="matrix(0.05,0,0,0.05,12,0)" xlink:href="#D"/><use transform="matrix(0.05,0,0,0.05,17,0)" xlink:href="#E"/><use transform="matrix(0.05,0,0,0.05,22.95,0)" xlink:href="#r"/><use transform="matrix(0.05,0,0,0.05,26.899999999999995,0)" xlink:href="#u"/><use transform="matrix(0.05,0,0,0.05,36.9,0)" xlink:href="#w"/></g><path fill="#333" d="M18-100v-36l175-74v27L42-118l151 64v27" id="F"/><path fill="#333" d="M18-150v-26h174v26H18zm0 90v-26h174v26H18" id="G"/><g id="f"><use transform="matrix(0.05,0,0,0.05,0,0)" xlink:href="#F"/><use transform="matrix(0.05,0,0,0.05,10.5,0)" xlink:href="#G"/></g><path fill="#333" d="M194-70c0 46-34 64-81 66v29H91V-4C42-5 12-27 4-67l30-6c5 28 25 41 57 43v-87c-38-9-76-20-76-67 1-42 33-58 76-59v-23h22v23c45 0 67 20 76 56l-31 6c-5-23-18-35-45-37v78c41 10 81 20 81 70zm-81 41c51 7 71-66 19-77-6-2-12-4-19-6v83zM91-219c-47-6-63 57-18 69 6 2 12 3 18 5v-74" id="H"/><path fill="#333" d="M39-94c74 12-11 154 75 146v23c-44 4-70-10-70-52C44-23 55-84 6-82v-22c81 4-7-162 84-157h24v23c-82-15-2 131-75 144" id="I"/><path fill="#333" d="M-5 72V49h209v23H-5" id="J"/><path fill="#333" d="M197 0v-115H63V0H30v-248h33v105h134v-105h34V0h-34" id="K"/><path fill="#333" d="M140-251c81 0 123 46 123 126C263-46 219 4 140 4 59 4 17-45 17-125s42-126 123-126zm0 227c63 0 89-41 89-101s-29-99-89-99c-61 0-89 39-89 99S79-25 140-24" id="L"/><path fill="#333" d="M240 0l2-218c-23 76-54 145-80 218h-23L58-218 59 0H30v-248h44l77 211c21-75 51-140 76-211h43V0h-30" id="M"/><path fill="#333" d="M30 0v-248h187v28H63v79h144v27H63v87h162V0H30" id="N"/><path fill="#333" d="M76-40C78 24 84 88 6 75V52C86 64 9-79 80-94c-40-6-34-59-34-106 1-29-11-41-40-38v-23c44-4 70 10 70 52 0 47-12 108 38 105v22c-26 1-39 14-38 42" id="O"/><g id="g"><use transform="matrix(0.05,0,0,0.05,0,0)" xlink:href="#H"/><use transform="matrix(0.05,0,0,0.05,10,0)" xlink:href="#I"/><use transform="matrix(0.05,0,0,0.05,16,0)" xlink:href="#n"/><use transform="matrix(0.05,0,0,0.05,28,0)" xlink:href="#o"/><use transform="matrix(0.05,0,0,0.05,38,0)" xlink:href="#J"/><use transform="matrix(0.05,0,0,0.05,48,0)" xlink:href="#K"/><use transform="matrix(0.05,0,0,0.05,60.95,0)" xlink:href="#L"/><use transform="matrix(0.05,0,0,0.05,74.95,0)" xlink:href="#M"/><use transform="matrix(0.05,0,0,0.05,89.9,0)" xlink:href="#N"/><use transform="matrix(0.05,0,0,0.05,101.9,0)" xlink:href="#O"/></g><path fill="#333" d="M135-143c-3-34-86-38-87 0 15 53 115 12 119 90S17 21 10-45l28-5c4 36 97 45 98 0-10-56-113-15-118-90-4-57 82-63 122-42 12 7 21 19 24 35" id="P"/><path fill="#333" d="M84 4C-5 8 30-112 23-190h32v120c0 31 7 50 39 49 72-2 45-101 50-169h31l1 190h-30c-1-10 1-25-2-33-11 22-28 36-60 37" id="Q"/><path fill="#333" d="M96-169c-40 0-48 33-48 73s9 75 48 75c24 0 41-14 43-38l32 2c-6 37-31 61-74 61-59 0-76-41-82-99-10-93 101-131 147-64 4 7 5 14 7 22l-32 3c-4-21-16-35-41-35" id="R"/><g id="h"><use transform="matrix(0.05,0,0,0.05,0,0)" xlink:href="#E"/><use transform="matrix(0.05,0,0,0.05,5.95,0)" xlink:href="#A"/><use transform="matrix(0.05,0,0,0.05,15.949999999999998,0)" xlink:href="#P"/><use transform="matrix(0.05,0,0,0.05,24.95,0)" xlink:href="#t"/><use transform="matrix(0.05,0,0,0.05,34.95,0)" xlink:href="#Q"/><use transform="matrix(0.05,0,0,0.05,44.95,0)" xlink:href="#E"/><use transform="matrix(0.05,0,0,0.05,50.900000000000006,0)" xlink:href="#R"/><use transform="matrix(0.05,0,0,0.05,59.900000000000006,0)" xlink:href="#A"/><use transform="matrix(0.05,0,0,0.05,69.9,0)" xlink:href="#P"/></g><path fill="#333" d="M233-177c-1 41-23 64-60 70L243 0h-38l-65-103H63V0H30v-248c88 3 205-21 203 71zM63-129c60-2 137 13 137-47 0-61-80-42-137-45v92" id="S"/><g id="i"><use transform="matrix(0.05,0,0,0.05,0,0)" xlink:href="#n"/><use transform="matrix(0.05,0,0,0.05,12,0)" xlink:href="#o"/><use transform="matrix(0.05,0,0,0.05,22,0)" xlink:href="#p"/><use transform="matrix(0.05,0,0,0.05,34,0)" xlink:href="#q"/><use transform="matrix(0.05,0,0,0.05,44,0)" xlink:href="#r"/><use transform="matrix(0.05,0,0,0.05,47.95,0)" xlink:href="#S"/><use transform="matrix(0.05,0,0,0.05,60.900000000000006,0)" xlink:href="#A"/><use transform="matrix(0.05,0,0,0.05,70.9,0)" xlink:href="#P"/><use transform="matrix(0.05,0,0,0.05,79.9,0)" xlink:href="#t"/><use transform="matrix(0.05,0,0,0.05,89.9,0)" xlink:href="#Q"/><use transform="matrix(0.05,0,0,0.05,99.9,0)" xlink:href="#E"/><use transform="matrix(0.05,0,0,0.05,105.85000000000001,0)" xlink:href="#R"/><use transform="matrix(0.05,0,0,0.05,114.85000000000001,0)" xlink:href="#A"/><use transform="matrix(0.05,0,0,0.05,124.85000000000001,0)" xlink:href="#P"/><use transform="matrix(0.05,0,0,0.05,133.85000000000002,0)" xlink:href="#s"/><use transform="matrix(0.05,0,0,0.05,146.8,0)" xlink:href="#t"/><use transform="matrix(0.05,0,0,0.05,156.8,0)" xlink:href="#u"/><use transform="matrix(0.05,0,0,0.05,166.8,0)" xlink:href="#v"/><use transform="matrix(0.05,0,0,0.05,171.8,0)" xlink:href="#r"/><use transform="matrix(0.05,0,0,0.05,175.75,0)" xlink:href="#w"/></g><g id="j"><use transform="matrix(0.05,0,0,0.05,0,0)" xlink:href="#n"/><use transform="matrix(0.05,0,0,0.05,12,0)" xlink:href="#o"/><use transform="matrix(0.05,0,0,0.05,22,0)" xlink:href="#p"/><use transform="matrix(0.05,0,0,0.05,34,0)" xlink:href="#q"/><use transform="matrix(0.05,0,0,0.05,44,0)" xlink:href="#r"/><use transform="matrix(0.05,0,0,0.05,47.95,0)" xlink:href="#S"/><use transform="matrix(0.05,0,0,0.05,60.900000000000006,0)" xlink:href="#A"/><use transform="matrix(0.05,0,0,0.05,70.9,0)" xlink:href="#P"/><use transform="matrix(0.05,0,0,0.05,79.9,0)" xlink:href="#t"/><use transform="matrix(0.05,0,0,0.05,89.9,0)" xlink:href="#Q"/><use transform="matrix(0.05,0,0,0.05,99.9,0)" xlink:href="#E"/><use transform="matrix(0.05,0,0,0.05,105.85000000000001,0)" xlink:href="#R"/><use transform="matrix(0.05,0,0,0.05,114.85000000000001,0)" xlink:href="#A"/><use transform="matrix(0.05,0,0,0.05,124.85000000000001,0)" xlink:href="#P"/><use transform="matrix(0.05,0,0,0.05,133.85000000000002,0)" xlink:href="#s"/><use transform="matrix(0.05,0,0,0.05,146.8,0)" xlink:href="#t"/><use transform="matrix(0.05,0,0,0.05,156.8,0)" xlink:href="#u"/><use transform="matrix(0.05,0,0,0.05,166.8,0)" xlink:href="#v"/><use transform="matrix(0.05,0,0,0.05,171.8,0)" xlink:href="#r"/><use transform="matrix(0.05,0,0,0.05,175.75,0)" xlink:href="#w"/></g><path fill="#333" d="M24 0v-261h32V0H24" id="T"/><path fill="#333" d="M141-36C126-15 110 5 73 4 37 3 15-17 15-53c-1-64 63-63 125-63 3-35-9-54-41-54-24 1-41 7-42 31l-33-3c5-37 33-52 76-52 45 0 72 20 72 64v82c-1 20 7 32 28 27v20c-31 9-61-2-59-35zM48-53c0 20 12 33 32 33 41-3 63-29 60-74-43 2-92-5-92 41" id="U"/><g id="k"><use transform="matrix(0.05,0,0,0.05,0,0)" xlink:href="#T"/><use transform="matrix(0.05,0,0,0.05,3.95,0)" xlink:href="#t"/><use transform="matrix(0.05,0,0,0.05,13.949999999999998,0)" xlink:href="#R"/><use transform="matrix(0.05,0,0,0.05,22.95,0)" xlink:href="#U"/><use transform="matrix(0.05,0,0,0.05,32.95,0)" xlink:href="#D"/><use transform="matrix(0.05,0,0,0.05,37.95,0)" xlink:href="#r"/><use transform="matrix(0.05,0,0,0.05,41.900000000000006,0)" xlink:href="#t"/><use transform="matrix(0.05,0,0,0.05,51.900000000000006,0)" xlink:href="#u"/></g><g id="l"><use transform="matrix(0.05,0,0,0.05,0,0)" xlink:href="#C"/><use transform="matrix(0.05,0,0,0.05,12,0)" xlink:href="#D"/><use transform="matrix(0.05,0,0,0.05,17,0)" xlink:href="#E"/><use transform="matrix(0.05,0,0,0.05,22.95,0)" xlink:href="#r"/><use transform="matrix(0.05,0,0,0.05,26.899999999999995,0)" xlink:href="#u"/><use transform="matrix(0.05,0,0,0.05,36.9,0)" xlink:href="#w"/></g><path d="M27 0v-27h64v-190l-56 39v-29l58-41h29v221h61V0H27" id="V"/><path d="M33 0v-38h34V0H33" id="W"/><g id="m"><use transform="matrix(0.05,0,0,0.05,0,0)" xlink:href="#V"/><use transform="matrix(0.05,0,0,0.05,10,0)" xlink:href="#W"/><use transform="matrix(0.05,0,0,0.05,15,0)" xlink:href="#W"/><use transform="matrix(0.05,0,0,0.05,20,0)" xlink:href="#V"/></g></defs></g></svg>